<?xml version="1.0" encoding="UTF-8" standalone="no"?>
<!DOCTYPE svg PUBLIC "-//W3C//DTD SVG 1.1//EN"
 "http://www.w3.org/Graphics/SVG/1.1/DTD/svg11.dtd">
<!-- Generated by graphviz version 12.1.1 (20240910.0053)
 -->
<!-- Title: INFRA Pages: 1 -->
<svg width="816pt" height="188pt"
 viewBox="0.00 0.00 815.69 188.00" xmlns="http://www.w3.org/2000/svg" xmlns:xlink="http://www.w3.org/1999/xlink">
<g id="graph0" class="graph" transform="scale(1 1) rotate(0) translate(4 184)">
<title>INFRA</title>
<polygon fill="white" stroke="none" points="-4,4 -4,-184 811.69,-184 811.69,4 -4,4"/>
<!-- Firebase Storage Bucket -->
<g id="node1" class="node">
<title>Firebase Storage Bucket</title>
<path fill="#fff5cd" stroke="black" stroke-width="2" d="M187.19,-173.45C187.19,-177.07 145.24,-180 93.59,-180 41.95,-180 0,-177.07 0,-173.45 0,-173.45 0,-114.55 0,-114.55 0,-110.93 41.95,-108 93.59,-108 145.24,-108 187.19,-110.93 187.19,-114.55 187.19,-114.55 187.19,-173.45 187.19,-173.45"/>
<path fill="none" stroke="black" stroke-width="2" d="M187.19,-173.45C187.19,-169.84 145.24,-166.91 93.59,-166.91 41.95,-166.91 0,-169.84 0,-173.45"/>
<text text-anchor="middle" x="93.59" y="-148.2" font-family="Arial" font-size="14.00">Firebase Storage Bucket</text>
<text text-anchor="middle" x="93.59" y="-131.4" font-family="Arial" font-size="14.00">(Firebase::Storage::Bucket)</text>
</g>
<!-- Firebase Authentication -->
<g id="node2" class="node">
<title>Firebase Authentication</title>
<path fill="#e6e6e6" stroke="black" stroke-width="2" d="M364.01,-180C364.01,-180 217.18,-180 217.18,-180 211.18,-180 205.18,-174 205.18,-168 205.18,-168 205.18,-120 205.18,-120 205.18,-114 211.18,-108 217.18,-108 217.18,-108 364.01,-108 364.01,-108 370.01,-108 376.01,-114 376.01,-120 376.01,-120 376.01,-168 376.01,-168 376.01,-174 370.01,-180 364.01,-180"/>
<text text-anchor="middle" x="290.59" y="-148.2" font-family="Arial" font-size="14.00">Firebase Authentication</text>
<text text-anchor="middle" x="290.59" y="-131.4" font-family="Arial" font-size="14.00">(Firebase::Auth::Service)</text>
</g>
<!-- Firebase Cloud Messaging -->
<g id="node3" class="node">
<title>Firebase Cloud Messaging</title>
<path fill="#cce0ac" stroke="black" stroke-width="2" d="M591.46,-180C591.46,-180 405.72,-180 405.72,-180 399.72,-180 393.72,-174 393.72,-168 393.72,-168 393.72,-120 393.72,-120 393.72,-114 399.72,-108 405.72,-108 405.72,-108 591.46,-108 591.46,-108 597.46,-108 603.46,-114 603.46,-120 603.46,-120 603.46,-168 603.46,-168 603.46,-174 597.46,-180 591.46,-180"/>
<text text-anchor="middle" x="498.59" y="-148.2" font-family="Arial" font-size="14.00">Firebase Cloud Messaging</text>
<text text-anchor="middle" x="498.59" y="-131.4" font-family="Arial" font-size="14.00">(Firebase::Messaging::Service)</text>
</g>
<!-- Google Cloud Service Account -->
<g id="node4" class="node">
<title>Google Cloud Service Account</title>
<path fill="#e6e6e6" stroke="black" stroke-width="2" d="M795.69,-72C795.69,-72 611.5,-72 611.5,-72 605.5,-72 599.5,-66 599.5,-60 599.5,-60 599.5,-12 599.5,-12 599.5,-6 605.5,0 611.5,0 611.5,0 795.69,0 795.69,0 801.69,0 807.69,-6 807.69,-12 807.69,-12 807.69,-60 807.69,-60 807.69,-66 801.69,-72 795.69,-72"/>
<text text-anchor="middle" x="703.59" y="-40.2" font-family="Arial" font-size="14.00">Google Cloud Service Account</text>
<text text-anchor="middle" x="703.59" y="-23.4" font-family="Arial" font-size="14.00">(Google::IAM::ServiceAccount)</text>
</g>
<!-- Firebase Admin SDK -->
<g id="node5" class="node">
<title>Firebase Admin SDK</title>
<path fill="#e6e6e6" stroke="black" stroke-width="2" d="M773.5,-180C773.5,-180 633.68,-180 633.68,-180 627.68,-180 621.68,-174 621.68,-168 621.68,-168 621.68,-120 621.68,-120 621.68,-114 627.68,-108 633.68,-108 633.68,-108 773.5,-108 773.5,-108 779.5,-108 785.5,-114 785.5,-120 785.5,-120 785.5,-168 785.5,-168 785.5,-174 779.5,-180 773.5,-180"/>
<text text-anchor="middle" x="703.59" y="-148.2" font-family="Arial" font-size="14.00">Firebase Admin SDK</text>
<text text-anchor="middle" x="703.59" y="-131.4" font-family="Arial" font-size="14.00">(Firebase::Admin::SDK)</text>
</g>
<!-- Firebase Admin SDK&#45;&gt;Google Cloud Service Account -->
<g id="edge1" class="edge">
<title>Firebase Admin SDK&#45;&gt;Google Cloud Service Account</title>
<path fill="none" stroke="black" d="M703.59,-107.7C703.59,-99.93 703.59,-91.57 703.59,-83.43"/>
<polygon fill="black" stroke="black" points="707.09,-83.66 703.59,-73.66 700.09,-83.66 707.09,-83.66"/>
</g>
</g>
</svg>
